<svg xmlns="http://www.w3.org/2000/svg" width="16" height="16" viewBox="0 0 16 16"><path d="M8 2C1.311 2 0 2.521 0 8.5C0 14.479 1.311 15 8 15C14.689 15 16 14.479 16 8.5C16 2.521 14.689 2 8 2ZM8 13C2 13 2 13 2 8.5C2 4 2 4 8 4C14 4 14 4 14 8.5C14 13 14 13 8 13ZM11.29 6.70898C8.15298 9.75298 7.84601 9.75201 4.70801 6.70801C4.31201 6.32301 3.67901 6.333 3.29401 6.729C2.90901 7.125 2.919 7.75801 3.315 8.14301C5.286 10.054 6.643 11.01 8 11.01C9.357 11.01 10.713 10.054 12.682 8.14398C13.078 7.75898 13.088 7.12598 12.703 6.72998C12.319 6.33398 11.686 6.32398 11.29 6.70898Z" fill="#fff"/></svg>